<svg xmlns="http://www.w3.org/2000/svg" viewBox="0 0 120 120" fill="none">
  <!-- Bull profile - facing left, stylized -->
  <g stroke="none" fill="currentColor">
    <!-- Horn back -->
    <path d="M72 8 C78 4, 86 2, 92 6 C88 8, 82 12, 78 18 C76 14, 74 10, 72 8Z"/>
    <!-- Horn front -->
    <path d="M52 12 C46 4, 38 0, 30 2 C34 6, 40 12, 44 18 C46 14, 50 12, 52 12Z"/>
    <!-- Head shape -->
    <path d="M44 18 C36 22, 28 28, 22 36 C18 42, 16 48, 18 54 C20 58, 24 60, 28 62
             L28 68 C28 72, 26 76, 24 78 C22 80, 22 84, 26 86
             C30 88, 36 86, 40 84 C44 82, 46 78, 46 74
             L48 70 C52 72, 58 72, 62 70
             L64 74 C64 78, 66 82, 70 84
             C74 86, 80 88, 84 86 C88 84, 88 80, 86 78
             C84 76, 82 72, 82 68 L82 64
             C88 60, 92 54, 92 48 C92 40, 88 32, 82 24
             C78 18, 72 16, 66 16 C58 16, 50 16, 44 18Z"/>
    <!-- Eye -->
    <circle cx="48" cy="36" r="4" fill="currentColor"/>
    <circle cx="48" cy="36" r="1.5" fill="#080e1e"/>
    <!-- Nostril -->
    <ellipse cx="30" cy="72" rx="3" ry="4"/>
    <ellipse cx="42" cy="72" rx="3" ry="4"/>
    <!-- Neck/shoulder muscles -->
    <path d="M82 64 C90 68, 96 76, 100 86 C104 96, 106 108, 104 118
             L56 118 C52 108, 48 98, 46 90 C44 84, 44 78, 46 74
             C52 80, 64 82, 76 78 C80 76, 82 72, 82 64Z"/>
    <!-- Ear -->
    <path d="M66 16 C70 10, 76 10, 78 14 C78 18, 74 20, 70 20 C68 20, 66 18, 66 16Z"/>
    <!-- Detail lines - neck -->
    <path d="M86 72 C90 80, 94 92, 96 104" stroke="currentColor" stroke-width="1.5" fill="none" opacity="0.3"/>
    <path d="M78 76 C82 84, 86 96, 88 108" stroke="currentColor" stroke-width="1" fill="none" opacity="0.2"/>
    <!-- Brow detail -->
    <path d="M38 30 C42 26, 50 26, 56 28" stroke="#080e1e" stroke-width="1.5" fill="none"/>
  </g>
</svg>
